{"title":"Open.Season.3.2010.720p.BRRip.x264.Feel-Free","uid":6066479,"size":1613507608,"categoryP":"video","categoryS":"hd___movies","magnet":"?xt=urn:btih:e0477e944b225e624177fa753ca692ef3104add1&amp;dn=Open.Season.3.2010.720p.BRRip.x264.Feel-Free&amp;tr=udp%3A%2F%2Ftracker.openbittorrent.com%3A80&amp;tr=udp%3A%2F%2Fopen.demonii.com%3A1337&amp;tr=udp%3A%2F%2Ftracker.coppersurfer.tk%3A6969&amp;tr=udp%3A%2F%2Fexodus.desync.com%3A6969","seeders":0,"leechers":0,"uploader":"hiest","files":9,"time":1293385639,"description":"Genre:Animation \nLanguage:English\nIMDb:http://www.imdb.com/title/tt1646926/\nSource:1080p Bluray x264 DTS-HDChina\n\n\n\nFormat : Matroska\nFile size : 1.50 GiB\nDuration : 1h 14mn\nOverall bit rate : 2 870 Kbps\n\n\nVideo\nFormat settings, CABAC : Yes\nFormat settings, ReFrames : 4 frames\nCodec ID : V_MPEG4/ISO/AVC\nDuration : 1h 14mn\nBit rate : 2 500 Kbps\nWidth : 1 280 pixels\nHeight : 720 pixels\nDisplay aspect ratio : 16:9\nFrame rate mode : Variable\nFrame rate : 23.976 fps\nColor space : YUV\nChroma subsampling : 4:2:0\nBit depth : 8 bits\nScan type : Progressive\nBits/(Pixel*Frame) : 0.113\nStream size : 1.27 GiB (85%)\nWriting library : x264\n\nAudio\nID : 2\nFormat : AC-3\nFormat/Info : Audio Coding 3\nMode extension : CM (complete main)\nCodec ID : A_AC3\nDuration : 1h 14mn\nBit rate mode : Constant\nBit rate : 384 Kbps\nChannel(s) : 6 channels\nChannel positions : Front: L C R, Side: L R, LFE\nSampling rate : 48.0 KHz\nBit depth : 16 bits\nVideo delay : -1mn 5s\nStream size : 205 MiB (13%)\nLanguage : English\n\n\n\nPlot:\nBoog's friends really to bring him home from a Russian traveling circus.\n\n\n\n================================== &lt;a href=&quot;\nhttp://thepiratebay.se/user/hiest&quot; rel=&quot;nofollow&quot; target=&quot;_NEW&quot;&gt;\nhttp://thepiratebay.se/user/hiest&lt;/a&gt;\n==================================","torrent":{"xt":"urn:btih:e0477e944b225e624177fa753ca692ef3104add1","amp;dn":"Open.Season.3.2010.720p.BRRip.x264.Feel-Free","amp;tr":["udp%3A%2F%2Ftracker.openbittorrent.com%3A80","udp%3A%2F%2Fopen.demonii.com%3A1337","udp%3A%2F%2Ftracker.coppersurfer.tk%3A6969","udp%3A%2F%2Fexodus.desync.com%3A6969"],"infoHash":"e0477e944b225e624177fa753ca692ef3104add1","infoHashBuffer":{"type":"Buffer","data":[224,71,126,148,75,34,94,98,65,119,250,117,60,166,146,239,49,4,173,209]},"announce":[],"urlList":[]}}